<?xml version="1.0" encoding="UTF-8" standalone="no"?>
<!-- Generator: Adobe Illustrator 19.0.0, SVG Export Plug-In . SVG Version: 6.00 Build 0)  -->

<svg
   version="1.1"
   id="Layer_1"
   x="0px"
   y="0px"
   viewBox="131 -131 512 512"
   style="enable-background:new 131 -131 512 512;"
   xml:space="preserve"
   sodipodi:docname="file-text-outlined_1.svg"
   inkscape:version="1.3.2 (091e20e, 2023-11-25, custom)"
   xmlns:inkscape="http://www.inkscape.org/namespaces/inkscape"
   xmlns:sodipodi="http://sodipodi.sourceforge.net/DTD/sodipodi-0.dtd"
   xmlns="http://www.w3.org/2000/svg"
   xmlns:svg="http://www.w3.org/2000/svg"><defs
   id="defs1" /><sodipodi:namedview
   id="namedview1"
   pagecolor="#ffffff"
   bordercolor="#666666"
   borderopacity="1.0"
   inkscape:showpageshadow="2"
   inkscape:pageopacity="0.0"
   inkscape:pagecheckerboard="0"
   inkscape:deskcolor="#d1d1d1"
   inkscape:zoom="3.28125"
   inkscape:cx="256"
   inkscape:cy="256"
   inkscape:window-width="3840"
   inkscape:window-height="2066"
   inkscape:window-x="-11"
   inkscape:window-y="-11"
   inkscape:window-maximized="1"
   inkscape:current-layer="Layer_1" />
<g
   id="XMLID_2_"
   style="stroke:#ffffff;fill:#ffffff">
	<path
   id="XMLID_10_"
   d="M586.7-22.6c5.1,5.1,10.2,12.8,13.7,21.3c3.4,9.4,6,17.9,6,24.7v329.4c0,7.7-2.6,14.5-7.7,19.6   s-12,8.6-19.7,8.6H195c-7.7,0-14.5-2.6-19.6-7.7c-5.1-5.1-7.7-11.9-7.7-19.6v-457.4c0-7.7,2.6-14.5,7.7-19.6   c5.1-5.1,11.9-7.7,19.6-7.7h256c7.7,0,16.2,1.7,24.7,6c9.4,3.4,16.2,8.5,21.3,13.7L586.7-22.6z M460.4-91.7V15.8h107.5   c-1.7-5.1-4.3-9.4-6-11.9l-90.5-89.6C469.8-88.3,465.5-90,460.4-91.7z M569.6,344.3V51.6H451c-7.7,0-14.5-2.6-19.6-7.7   c-5.1-5.1-7.7-11.9-7.7-19.6V-94.3H204.4v438.6L569.6,344.3L569.6,344.3z M276.9,97.7c0-2.6,0.9-5.1,2.6-6.8s4.3-2.6,6.8-2.6h201.4   c2.6,0,5.1,0.9,6.8,2.6c1.7,1.7,2.6,4.3,2.6,6.8v17.9c0,2.6-0.9,5.1-2.6,6.8s-4.3,2.6-6.8,2.6H286.3c-2.6,0-5.1-0.9-6.8-2.6   c-1.7-1.7-2.6-4.3-2.6-6.8C276.9,115.6,276.9,97.7,276.9,97.7z M487.7,161.7c2.6,0,5.1,0.9,6.8,2.6c1.7,1.7,2.6,4.3,2.6,6.8V189   c0,2.6-0.9,5.1-2.6,6.8c-1.7,1.7-4.3,2.6-6.8,2.6H286.3c-2.6,0-5.1-0.9-6.8-2.6s-2.6-4.3-2.6-6.8v-17.9c0-2.6,0.9-5.1,2.6-6.8   c1.7-1.7,4.3-2.6,6.8-2.6H487.7z M487.7,235.1c2.6,0,5.1,0.9,6.8,2.6c1.7,1.7,2.6,4.3,2.6,6.8v17.9c0,2.6-0.9,5.1-2.6,6.8   c-1.7,1.7-4.3,2.6-6.8,2.6H286.3c-2.6,0-5.1-0.9-6.8-2.6s-2.6-4.3-2.6-6.8v-17.9c0-2.6,0.9-5.1,2.6-6.8c1.7-1.7,4.3-2.6,6.8-2.6   H487.7z"
   style="stroke:#ffffff;fill:#ffffff" />
</g>
</svg>
