<?xml version="1.0" encoding="UTF-8" standalone="no"?>
<!-- Generator: Adobe Illustrator 27.7.0, SVG Export Plug-In . SVG Version: 6.00 Build 0)  -->

<svg
   version="1.1"
   id="mdi-image-search"
   x="0px"
   y="0px"
   viewBox="0 0 512 512"
   style="enable-background:new 0 0 512 512;"
   xml:space="preserve"
   sodipodi:docname="image-search_3.svg"
   inkscape:version="1.3.2 (091e20e, 2023-11-25, custom)"
   xmlns:inkscape="http://www.inkscape.org/namespaces/inkscape"
   xmlns:sodipodi="http://sodipodi.sourceforge.net/DTD/sodipodi-0.dtd"
   xmlns="http://www.w3.org/2000/svg"
   xmlns:svg="http://www.w3.org/2000/svg"><defs
   id="defs1" /><sodipodi:namedview
   id="namedview1"
   pagecolor="#ffffff"
   bordercolor="#666666"
   borderopacity="1.0"
   inkscape:showpageshadow="2"
   inkscape:pageopacity="0.0"
   inkscape:pagecheckerboard="0"
   inkscape:deskcolor="#d1d1d1"
   inkscape:zoom="3.28125"
   inkscape:cx="256"
   inkscape:cy="256"
   inkscape:window-width="3840"
   inkscape:window-height="2066"
   inkscape:window-x="-11"
   inkscape:window-y="-11"
   inkscape:window-maximized="1"
   inkscape:current-layer="mdi-image-search" />
<g
   id="g1"
   style="fill:#00556b;fill-opacity:1">
	<path
   d="M338.99,4.9c62.78,0,113,50.22,113,113c0,22.1-6.28,42.94-17.33,60.26L512,256l-34.9,34.9l-78.34-77.09   c-17.33,10.8-37.92,17.08-59.76,17.08c-62.78,0-113-50.22-113-113S276.21,4.9,338.99,4.9 M338.99,55.12   c-34.67,0-62.78,28.11-62.78,62.78c0,34.67,28.11,62.78,62.78,62.78s62.78-28.11,62.78-62.78   C401.77,83.22,373.66,55.12,338.99,55.12 M138.11,318.78l-87.89,113h351.54l-113-150.66l-87.89,113L138.11,318.78 M451.99,456.88   c0,27.74-22.48,50.22-50.22,50.22H50.22C22.48,507.1,0,484.62,0,456.88V105.34C0,77.6,22.48,55.12,50.22,55.12h138.11   c-8.04,19.33-12.56,40.43-12.56,62.78c0,90.14,73.07,163.22,163.22,163.22c17.08,0,33.65-2.76,49.22-7.53l63.78,63.78V456.88z"
   id="path1"
   style="fill:#00556b;fill-opacity:1" />
</g>
</svg>
